{
    "asset" : {
        "generator" : "Khronos glTF Blender I/O v3.3.32",
        "version" : "2.0"
    },
    "extensionsUsed" : [
        "KHR_materials_specular",
        "KHR_materials_ior"
    ],
    "scene" : 0,
    "scenes" : [
        {
            "name" : "Scene",
            "nodes" : [
                0,
                1,
                2,
                3
            ]
        }
    ],
    "nodes" : [
        {
            "mesh" : 0,
            "name" : "VordererPolster",
            "rotation" : [
                0.7071068286895752,
                0,
                0,
                0.7071067094802856
            ],
            "translation" : [
                -61.599998474121094,
                0,
                107.19999694824219
            ]
        },
        {
            "mesh" : 1,
            "name" : "Decke",
            "rotation" : [
                0.7071068286895752,
                0,
                0,
                0.7071067094802856
            ],
            "translation" : [
                -60.72999954223633,
                0,
                107.19999694824219
            ]
        },
        {
            "mesh" : 2,
            "name" : "HintererPolster",
            "rotation" : [
                0.7071068286895752,
                0,
                0,
                0.7071067094802856
            ],
            "translation" : [
                -61.599998474121094,
                0,
                107.19999694824219
            ]
        },
        {
            "mesh" : 3,
            "name" : "Matratze",
            "rotation" : [
                0.7071068286895752,
                0,
                0,
                0.7071067094802856
            ],
            "translation" : [
                -61.599998474121094,
                0,
                107.19999694824219
            ]
        }
    ],
    "materials" : [
        {
            "doubleSided" : true,
            "extensions" : {
                "KHR_materials_specular" : {
                    "specularColorFactor" : [
                        0,
                        0,
                        0
                    ]
                },
                "KHR_materials_ior" : {
                    "ior" : 1.4500000476837158
                }
            },
            "name" : "Material6",
            "pbrMetallicRoughness" : {
                "baseColorFactor" : [
                    0.26535946130752563,
                    0.33435001969337463,
                    0.8000000715255737,
                    1
                ],
                "metallicFactor" : 0
            }
        },
        {
            "doubleSided" : true,
            "extensions" : {
                "KHR_materials_specular" : {
                    "specularColorFactor" : [
                        0,
                        0,
                        0
                    ]
                },
                "KHR_materials_ior" : {
                    "ior" : 1.4500000476837158
                }
            },
            "name" : "Fabric_Pattern_E01_20cm",
            "pbrMetallicRoughness" : {
                "baseColorFactor" : [
                    0.33356189727783203,
                    0.5616707801818848,
                    0.8000000715255737,
                    1
                ],
                "metallicFactor" : 0
            }
        },
        {
            "doubleSided" : true,
            "extensions" : {
                "KHR_materials_specular" : {
                    "specularColorFactor" : [
                        0,
                        0,
                        0
                    ]
                },
                "KHR_materials_ior" : {
                    "ior" : 1.4500000476837158
                }
            },
            "name" : "Material11",
            "pbrMetallicRoughness" : {
                "baseColorFactor" : [
                    0.16676555573940277,
                    0.5534329414367676,
                    0.8000000715255737,
                    1
                ],
                "metallicFactor" : 0
            }
        }
    ],
    "meshes" : [
        {
            "name" : "Mesh11",
            "primitives" : [
                {
                    "attributes" : {
                        "POSITION" : 0,
                        "NORMAL" : 1,
                        "TEXCOORD_0" : 2
                    },
                    "indices" : 3,
                    "material" : 0
                }
            ]
        },
        {
            "name" : "Mesh2",
            "primitives" : [
                {
                    "attributes" : {
                        "POSITION" : 4,
                        "NORMAL" : 5,
                        "TEXCOORD_0" : 6
                    },
                    "indices" : 7,
                    "material" : 1
                }
            ]
        },
        {
            "name" : "Mesh5",
            "primitives" : [
                {
                    "attributes" : {
                        "POSITION" : 8,
                        "NORMAL" : 9,
                        "TEXCOORD_0" : 10
                    },
                    "indices" : 11,
                    "material" : 2
                }
            ]
        },
        {
            "name" : "Mesh6",
            "primitives" : [
                {
                    "attributes" : {
                        "POSITION" : 12,
                        "NORMAL" : 13,
                        "TEXCOORD_0" : 14
                    },
                    "indices" : 15
                }
            ]
        }
    ],
    "accessors" : [
        {
            "bufferView" : 0,
            "componentType" : 5126,
            "count" : 22944,
            "max" : [
                113.70368957519531,
                -161.44287109375,
                -59.515174865722656
            ],
            "min" : [
                37.50434112548828,
                -193.81851196289062,
                -103.80335998535156
            ],
            "type" : "VEC3"
        },
        {
            "bufferView" : 1,
            "componentType" : 5126,
            "count" : 22944,
            "type" : "VEC3"
        },
        {
            "bufferView" : 2,
            "componentType" : 5126,
            "count" : 22944,
            "type" : "VEC2"
        },
        {
            "bufferView" : 3,
            "componentType" : 5123,
            "count" : 22944,
            "type" : "SCALAR"
        },
        {
            "bufferView" : 4,
            "componentType" : 5126,
            "count" : 99372,
            "max" : [
                147.2583465576172,
                -2.6142713075707688e-14,
                -28.278423309326172
            ],
            "min" : [
                2.2737367883136385e-14,
                -167.16502380371094,
                -68.99642181396484
            ],
            "type" : "VEC3"
        },
        {
            "bufferView" : 5,
            "componentType" : 5126,
            "count" : 99372,
            "type" : "VEC3"
        },
        {
            "bufferView" : 6,
            "componentType" : 5126,
            "count" : 99372,
            "type" : "VEC2"
        },
        {
            "bufferView" : 7,
            "componentType" : 5125,
            "count" : 99372,
            "type" : "SCALAR"
        },
        {
            "bufferView" : 8,
            "componentType" : 5126,
            "count" : 29958,
            "max" : [
                117.99263763427734,
                -185.6658477783203,
                -59.3100471496582
            ],
            "min" : [
                33.586692810058594,
                -217.571533203125,
                -106.45790100097656
            ],
            "type" : "VEC3"
        },
        {
            "bufferView" : 9,
            "componentType" : 5126,
            "count" : 29958,
            "type" : "VEC3"
        },
        {
            "bufferView" : 10,
            "componentType" : 5126,
            "count" : 29958,
            "type" : "VEC2"
        },
        {
            "bufferView" : 11,
            "componentType" : 5123,
            "count" : 29958,
            "type" : "SCALAR"
        },
        {
            "bufferView" : 12,
            "componentType" : 5126,
            "count" : 87252,
            "max" : [
                126.03116607666016,
                -20.254186630249023,
                -30.0572566986084
            ],
            "min" : [
                26.031169891357422,
                -216.45419311523438,
                -60.78239059448242
            ],
            "type" : "VEC3"
        },
        {
            "bufferView" : 13,
            "componentType" : 5126,
            "count" : 87252,
            "type" : "VEC3"
        },
        {
            "bufferView" : 14,
            "componentType" : 5126,
            "count" : 87252,
            "type" : "VEC2"
        },
        {
            "bufferView" : 15,
            "componentType" : 5125,
            "count" : 87252,
            "type" : "SCALAR"
        }
    ],
    "bufferViews" : [
        {
            "buffer" : 0,
            "byteLength" : 275328,
            "byteOffset" : 0,
            "target" : 34962
        },
        {
            "buffer" : 0,
            "byteLength" : 275328,
            "byteOffset" : 275328,
            "target" : 34962
        },
        {
            "buffer" : 0,
            "byteLength" : 183552,
            "byteOffset" : 550656,
            "target" : 34962
        },
        {
            "buffer" : 0,
            "byteLength" : 45888,
            "byteOffset" : 734208,
            "target" : 34963
        },
        {
            "buffer" : 0,
            "byteLength" : 1192464,
            "byteOffset" : 780096,
            "target" : 34962
        },
        {
            "buffer" : 0,
            "byteLength" : 1192464,
            "byteOffset" : 1972560,
            "target" : 34962
        },
        {
            "buffer" : 0,
            "byteLength" : 794976,
            "byteOffset" : 3165024,
            "target" : 34962
        },
        {
            "buffer" : 0,
            "byteLength" : 397488,
            "byteOffset" : 3960000,
            "target" : 34963
        },
        {
            "buffer" : 0,
            "byteLength" : 359496,
            "byteOffset" : 4357488,
            "target" : 34962
        },
        {
            "buffer" : 0,
            "byteLength" : 359496,
            "byteOffset" : 4716984,
            "target" : 34962
        },
        {
            "buffer" : 0,
            "byteLength" : 239664,
            "byteOffset" : 5076480,
            "target" : 34962
        },
        {
            "buffer" : 0,
            "byteLength" : 59916,
            "byteOffset" : 5316144,
            "target" : 34963
        },
        {
            "buffer" : 0,
            "byteLength" : 1047024,
            "byteOffset" : 5376060,
            "target" : 34962
        },
        {
            "buffer" : 0,
            "byteLength" : 1047024,
            "byteOffset" : 6423084,
            "target" : 34962
        },
        {
            "buffer" : 0,
            "byteLength" : 698016,
            "byteOffset" : 7470108,
            "target" : 34962
        },
        {
            "buffer" : 0,
            "byteLength" : 349008,
            "byteOffset" : 8168124,
            "target" : 34963
        }
    ],
    "buffers" : [
        {
            "byteLength" : 8517132,
            "uri" : "Bed_stuff.bin"
        }
    ]
}
