<?xml version="1.0" encoding="UTF-8"?>
<svg id="Ebene_2" data-name="Ebene 2" xmlns="http://www.w3.org/2000/svg" viewBox="0 0 28.95 45.78">
  <defs>
    <style>
      .cls-1 {
        fill: #3C4F64;
        stroke-width: 0px;
      }
    </style>
  </defs>
  <g id="Ebene_1-2" data-name="Ebene 1">
    <path class="cls-1" d="M0,16.83v16.44c0,6.91,5.6,12.51,12.51,12.51h3.93c6.91,0,12.51-5.6,12.51-12.51v-16.44s-11.5,0-11.5,0v2.92c0,1.07-.87,1.93-1.93,1.93h-1.83c-1.06,0-1.93-.86-1.93-1.93v-2.92s-11.76,0-11.76,0Z"/>
    <path class="cls-1" d="M15.54.07v9.96c1.05.01,1.91.88,1.91,1.93v3.33s11.31,0,11.31,0v-6.94c0-4.57-3.71-8.28-8.28-8.28h-4.94Z"/>
    <path class="cls-1" d="M12.6,1v8.24c-1.08.43-1.84,1.49-1.84,2.72v2.27H1.38v-4.48C1.38,4.93,5.31,1,10.13,1h2.47M13.6,0h-3.47C4.74,0,.38,4.36.38,9.75v5.48h11.38v-3.27c0-1.03.82-1.88,1.84-1.93V0h0Z"/>
    <path class="cls-1" d="M14.18,11.19h.96c.71,0,1.29.58,1.29,1.29v6.42c0,.83-.67,1.5-1.5,1.5h-.53c-.84,0-1.52-.68-1.52-1.52v-6.38c0-.72.59-1.31,1.31-1.31Z" transform="translate(29.29 31.6) rotate(180)"/>
  </g>
</svg>