{
    "asset" : {
        "generator" : "Khronos glTF Blender I/O v3.3.32",
        "version" : "2.0"
    },
    "scene" : 0,
    "scenes" : [
        {
            "name" : "Scene",
            "nodes" : [
                0,
                1,
                2,
                3,
                4
            ]
        }
    ],
    "nodes" : [
        {
            "mesh" : 0,
            "name" : "Plane.006",
            "rotation" : [
                -0.03094644844532013,
                0.04226290062069893,
                0.0027956748381257057,
                0.998623251914978
            ],
            "scale" : [
                0.15192286670207977,
                0.15192286670207977,
                0.15192286670207977
            ],
            "translation" : [
                0.9653790593147278,
                1.4263437986373901,
                -0.3065265715122223
            ]
        },
        {
            "mesh" : 1,
            "name" : "Plane.005",
            "scale" : [
                0.15000000596046448,
                0.15000000596046448,
                0.15000000596046448
            ],
            "translation" : [
                2.7037131786346436,
                1.4439657926559448,
                -0.3102302551269531
            ]
        },
        {
            "mesh" : 2,
            "name" : "Plane.004",
            "scale" : [
                0.15000000596046448,
                0.125,
                0.15000000596046448
            ],
            "translation" : [
                2.6849400997161865,
                1.459570050239563,
                -0.33021095395088196
            ]
        },
        {
            "mesh" : 3,
            "name" : "Steel Curtain Rod.001",
            "rotation" : [
                0.7071068286895752,
                -0.7071068286895752,
                0,
                3.090862676913275e-08
            ],
            "scale" : [
                0.016249988228082657,
                0.10027847439050674,
                0.016249999403953552
            ],
            "translation" : [
                0.9652057886123657,
                2.5436620712280273,
                -0.2754165232181549
            ]
        },
        {
            "mesh" : 4,
            "name" : "Plane.001",
            "rotation" : [
                0,
                -1,
                0,
                1.6292068494294654e-07
            ],
            "scale" : [
                0.15000000596046448,
                0.125,
                0.15000000596046448
            ],
            "translation" : [
                0.9295780062675476,
                1.4622281789779663,
                -0.3079623281955719
            ]
        }
    ],
    "materials" : [
        {
            "doubleSided" : true,
            "name" : "Material.010",
            "pbrMetallicRoughness" : {
                "baseColorFactor" : [
                    0.030399374663829803,
                    0.029738035053014755,
                    0.025286413729190826,
                    1
                ],
                "metallicFactor" : 0,
                "roughnessFactor" : 0.5
            }
        },
        {
            "doubleSided" : true,
            "name" : "Material.011",
            "pbrMetallicRoughness" : {
                "baseColorFactor" : [
                    0.599594235420227,
                    0.8000000715255737,
                    0.7923372387886047,
                    1
                ],
                "metallicFactor" : 0,
                "roughnessFactor" : 0.5
            }
        },
        {
            "doubleSided" : true,
            "name" : "Material.012",
            "pbrMetallicRoughness" : {
                "baseColorFactor" : [
                    0.03618570789694786,
                    0.03618570789694786,
                    0.03618570789694786,
                    1
                ]
            }
        },
        {
            "doubleSided" : true,
            "name" : "Material.014",
            "pbrMetallicRoughness" : {
                "baseColorFactor" : [
                    0.599594235420227,
                    0.8000000715255737,
                    0.7923372387886047,
                    1
                ],
                "metallicFactor" : 0,
                "roughnessFactor" : 0.5
            }
        }
    ],
    "meshes" : [
        {
            "name" : "Plane.004",
            "primitives" : [
                {
                    "attributes" : {
                        "POSITION" : 0,
                        "NORMAL" : 1,
                        "TEXCOORD_0" : 2
                    },
                    "indices" : 3,
                    "material" : 0
                }
            ]
        },
        {
            "name" : "Plane.001",
            "primitives" : [
                {
                    "attributes" : {
                        "POSITION" : 4,
                        "NORMAL" : 5,
                        "TEXCOORD_0" : 6
                    },
                    "indices" : 3,
                    "material" : 0
                }
            ]
        },
        {
            "name" : "Plane.005",
            "primitives" : [
                {
                    "attributes" : {
                        "POSITION" : 7,
                        "NORMAL" : 8
                    },
                    "indices" : 9,
                    "material" : 1
                }
            ]
        },
        {
            "name" : "Cylinder.002",
            "primitives" : [
                {
                    "attributes" : {
                        "POSITION" : 10,
                        "NORMAL" : 11,
                        "TEXCOORD_0" : 12
                    },
                    "indices" : 13,
                    "material" : 2
                }
            ]
        },
        {
            "name" : "Plane.003",
            "primitives" : [
                {
                    "attributes" : {
                        "POSITION" : 14,
                        "NORMAL" : 15
                    },
                    "indices" : 16,
                    "material" : 3
                }
            ]
        }
    ],
    "accessors" : [
        {
            "bufferView" : 0,
            "componentType" : 5126,
            "count" : 32,
            "max" : [
                0.1335022747516632,
                0.13517555594444275,
                0.3235797584056854
            ],
            "min" : [
                -0.42585107684135437,
                -0.24435178935527802,
                -0.4796956181526184
            ],
            "type" : "VEC3"
        },
        {
            "bufferView" : 1,
            "componentType" : 5126,
            "count" : 32,
            "type" : "VEC3"
        },
        {
            "bufferView" : 2,
            "componentType" : 5126,
            "count" : 32,
            "type" : "VEC2"
        },
        {
            "bufferView" : 3,
            "componentType" : 5123,
            "count" : 48,
            "type" : "SCALAR"
        },
        {
            "bufferView" : 4,
            "componentType" : 5126,
            "count" : 32,
            "max" : [
                0.1335022747516632,
                0.13517555594444275,
                0.3235797584056854
            ],
            "min" : [
                -0.42585107684135437,
                -0.24435178935527802,
                -0.4796956181526184
            ],
            "type" : "VEC3"
        },
        {
            "bufferView" : 5,
            "componentType" : 5126,
            "count" : 32,
            "type" : "VEC3"
        },
        {
            "bufferView" : 6,
            "componentType" : 5126,
            "count" : 32,
            "type" : "VEC2"
        },
        {
            "bufferView" : 7,
            "componentType" : 5126,
            "count" : 4485,
            "max" : [
                0.4207713007926941,
                9.038893699645996,
                0.781292736530304
            ],
            "min" : [
                -4.454423427581787,
                -9.494112968444824,
                -0.7815878391265869
            ],
            "type" : "VEC3"
        },
        {
            "bufferView" : 8,
            "componentType" : 5126,
            "count" : 4485,
            "type" : "VEC3"
        },
        {
            "bufferView" : 9,
            "componentType" : 5123,
            "count" : 26076,
            "type" : "SCALAR"
        },
        {
            "bufferView" : 10,
            "componentType" : 5126,
            "count" : 18440,
            "max" : [
                3.8430440425872803,
                1.9993914365768433,
                2.2077956199645996
            ],
            "min" : [
                -2.2659757137298584,
                -19.14993667602539,
                -9.750343322753906
            ],
            "type" : "VEC3"
        },
        {
            "bufferView" : 11,
            "componentType" : 5126,
            "count" : 18440,
            "type" : "VEC3"
        },
        {
            "bufferView" : 12,
            "componentType" : 5126,
            "count" : 18440,
            "type" : "VEC2"
        },
        {
            "bufferView" : 13,
            "componentType" : 5123,
            "count" : 90156,
            "type" : "SCALAR"
        },
        {
            "bufferView" : 14,
            "componentType" : 5126,
            "count" : 4481,
            "max" : [
                0.4207713007926941,
                8.930047035217285,
                0.781292736530304
            ],
            "min" : [
                -4.6013569831848145,
                -9.494112968444824,
                -0.7815878391265869
            ],
            "type" : "VEC3"
        },
        {
            "bufferView" : 15,
            "componentType" : 5126,
            "count" : 4481,
            "type" : "VEC3"
        },
        {
            "bufferView" : 16,
            "componentType" : 5123,
            "count" : 26055,
            "type" : "SCALAR"
        }
    ],
    "bufferViews" : [
        {
            "buffer" : 0,
            "byteLength" : 384,
            "byteOffset" : 0,
            "target" : 34962
        },
        {
            "buffer" : 0,
            "byteLength" : 384,
            "byteOffset" : 384,
            "target" : 34962
        },
        {
            "buffer" : 0,
            "byteLength" : 256,
            "byteOffset" : 768,
            "target" : 34962
        },
        {
            "buffer" : 0,
            "byteLength" : 96,
            "byteOffset" : 1024,
            "target" : 34963
        },
        {
            "buffer" : 0,
            "byteLength" : 384,
            "byteOffset" : 1120,
            "target" : 34962
        },
        {
            "buffer" : 0,
            "byteLength" : 384,
            "byteOffset" : 1504,
            "target" : 34962
        },
        {
            "buffer" : 0,
            "byteLength" : 256,
            "byteOffset" : 1888,
            "target" : 34962
        },
        {
            "buffer" : 0,
            "byteLength" : 53820,
            "byteOffset" : 2144,
            "target" : 34962
        },
        {
            "buffer" : 0,
            "byteLength" : 53820,
            "byteOffset" : 55964,
            "target" : 34962
        },
        {
            "buffer" : 0,
            "byteLength" : 52152,
            "byteOffset" : 109784,
            "target" : 34963
        },
        {
            "buffer" : 0,
            "byteLength" : 221280,
            "byteOffset" : 161936,
            "target" : 34962
        },
        {
            "buffer" : 0,
            "byteLength" : 221280,
            "byteOffset" : 383216,
            "target" : 34962
        },
        {
            "buffer" : 0,
            "byteLength" : 147520,
            "byteOffset" : 604496,
            "target" : 34962
        },
        {
            "buffer" : 0,
            "byteLength" : 180312,
            "byteOffset" : 752016,
            "target" : 34963
        },
        {
            "buffer" : 0,
            "byteLength" : 53772,
            "byteOffset" : 932328,
            "target" : 34962
        },
        {
            "buffer" : 0,
            "byteLength" : 53772,
            "byteOffset" : 986100,
            "target" : 34962
        },
        {
            "buffer" : 0,
            "byteLength" : 52110,
            "byteOffset" : 1039872,
            "target" : 34963
        }
    ],
    "buffers" : [
        {
            "byteLength" : 1091984,
            "uri" : "data:application/octet-stream;base64,"
        }
    ]
}
