{
    "asset" : {
        "generator" : "Khronos glTF Blender I/O v3.3.32",
        "version" : "2.0"
    },
    "scene" : 0,
    "scenes" : [
        {
            "name" : "Scene",
            "nodes" : [
                0,
                1,
                2,
                3,
                4
            ]
        }
    ],
    "nodes" : [
        {
            "mesh" : 0,
            "name" : "Plane.006",
            "scale" : [
                0.15000000596046448,
                0.15000000596046448,
                0.15000000596046448
            ],
            "translation" : [
                0.9627609252929688,
                1.1491997241973877,
                -0.3121252655982971
            ]
        },
        {
            "mesh" : 1,
            "name" : "Plane.005",
            "scale" : [
                0.15000000596046448,
                0.15000000596046448,
                0.15000000596046448
            ],
            "translation" : [
                2.706777811050415,
                1.1957199573516846,
                -0.3220626711845398
            ]
        },
        {
            "mesh" : 2,
            "name" : "Plane.004",
            "scale" : [
                0.15000000596046448,
                0.15000000596046448,
                0.15000000596046448
            ],
            "translation" : [
                2.6849400997161865,
                1.1957199573516846,
                -0.33309298753738403
            ]
        },
        {
            "mesh" : 2,
            "name" : "Plane.003",
            "rotation" : [
                0,
                -1,
                0,
                1.6292068494294654e-07
            ],
            "scale" : [
                0.15000000596046448,
                0.15000000596046448,
                0.15000000596046448
            ],
            "translation" : [
                0.9295780062675476,
                1.1857199668884277,
                -0.33309298753738403
            ]
        },
        {
            "mesh" : 3,
            "name" : "Steel Curtain Rod.001",
            "rotation" : [
                0.7071068286895752,
                -0.7071068286895752,
                0,
                3.090862676913275e-08
            ],
            "scale" : [
                0.016249988228082657,
                0.10027847439050674,
                0.016249999403953552
            ],
            "translation" : [
                0.9652057886123657,
                2.5436620712280273,
                -0.2754165232181549
            ]
        }
    ],
    "materials" : [
        {
            "doubleSided" : true,
            "name" : "Material.010",
            "pbrMetallicRoughness" : {
                "baseColorFactor" : [
                    0.030399374663829803,
                    0.029738035053014755,
                    0.025286413729190826,
                    1
                ],
                "metallicFactor" : 0,
                "roughnessFactor" : 0.5
            }
        },
        {
            "doubleSided" : true,
            "name" : "Material.011",
            "pbrMetallicRoughness" : {
                "baseColorFactor" : [
                    0.599594235420227,
                    0.8000000715255737,
                    0.7923372387886047,
                    1
                ],
                "metallicFactor" : 0,
                "roughnessFactor" : 0.5
            }
        },
        {
            "doubleSided" : true,
            "name" : "Material.012",
            "pbrMetallicRoughness" : {
                "baseColorFactor" : [
                    0.03618570789694786,
                    0.03618570789694786,
                    0.03618570789694786,
                    1
                ]
            }
        }
    ],
    "meshes" : [
        {
            "name" : "Plane.004",
            "primitives" : [
                {
                    "attributes" : {
                        "POSITION" : 0,
                        "NORMAL" : 1,
                        "TEXCOORD_0" : 2
                    },
                    "indices" : 3,
                    "material" : 0
                }
            ]
        },
        {
            "name" : "Plane.001",
            "primitives" : [
                {
                    "attributes" : {
                        "POSITION" : 4,
                        "NORMAL" : 5,
                        "TEXCOORD_0" : 6
                    },
                    "indices" : 3,
                    "material" : 0
                }
            ]
        },
        {
            "name" : "Plane.005",
            "primitives" : [
                {
                    "attributes" : {
                        "POSITION" : 7,
                        "NORMAL" : 8,
                        "TEXCOORD_0" : 9
                    },
                    "indices" : 10,
                    "material" : 1
                }
            ]
        },
        {
            "name" : "Cylinder.002",
            "primitives" : [
                {
                    "attributes" : {
                        "POSITION" : 11,
                        "NORMAL" : 12,
                        "TEXCOORD_0" : 13
                    },
                    "indices" : 14,
                    "material" : 2
                }
            ]
        }
    ],
    "accessors" : [
        {
            "bufferView" : 0,
            "componentType" : 5126,
            "count" : 32,
            "max" : [
                0.1335022747516632,
                0.13517555594444275,
                0.3235797584056854
            ],
            "min" : [
                -0.42585107684135437,
                -0.24435178935527802,
                -0.4796956181526184
            ],
            "type" : "VEC3"
        },
        {
            "bufferView" : 1,
            "componentType" : 5126,
            "count" : 32,
            "type" : "VEC3"
        },
        {
            "bufferView" : 2,
            "componentType" : 5126,
            "count" : 32,
            "type" : "VEC2"
        },
        {
            "bufferView" : 3,
            "componentType" : 5123,
            "count" : 48,
            "type" : "SCALAR"
        },
        {
            "bufferView" : 4,
            "componentType" : 5126,
            "count" : 32,
            "max" : [
                0.1335022747516632,
                0.13517555594444275,
                0.3235797584056854
            ],
            "min" : [
                -0.42585107684135437,
                -0.24435178935527802,
                -0.4796956181526184
            ],
            "type" : "VEC3"
        },
        {
            "bufferView" : 5,
            "componentType" : 5126,
            "count" : 32,
            "type" : "VEC3"
        },
        {
            "bufferView" : 6,
            "componentType" : 5126,
            "count" : 32,
            "type" : "VEC2"
        },
        {
            "bufferView" : 7,
            "componentType" : 5126,
            "count" : 4435,
            "max" : [
                0.4207713007926941,
                9.289779663085938,
                0.781292736530304
            ],
            "min" : [
                -4.454423427581787,
                -9.494112968444824,
                -0.7815878391265869
            ],
            "type" : "VEC3"
        },
        {
            "bufferView" : 8,
            "componentType" : 5126,
            "count" : 4435,
            "type" : "VEC3"
        },
        {
            "bufferView" : 9,
            "componentType" : 5126,
            "count" : 4435,
            "type" : "VEC2"
        },
        {
            "bufferView" : 10,
            "componentType" : 5123,
            "count" : 25782,
            "type" : "SCALAR"
        },
        {
            "bufferView" : 11,
            "componentType" : 5126,
            "count" : 18440,
            "max" : [
                3.8430440425872803,
                1.9993914365768433,
                2.2077956199645996
            ],
            "min" : [
                -2.2659757137298584,
                -19.14993667602539,
                -9.750343322753906
            ],
            "type" : "VEC3"
        },
        {
            "bufferView" : 12,
            "componentType" : 5126,
            "count" : 18440,
            "type" : "VEC3"
        },
        {
            "bufferView" : 13,
            "componentType" : 5126,
            "count" : 18440,
            "type" : "VEC2"
        },
        {
            "bufferView" : 14,
            "componentType" : 5123,
            "count" : 90156,
            "type" : "SCALAR"
        }
    ],
    "bufferViews" : [
        {
            "buffer" : 0,
            "byteLength" : 384,
            "byteOffset" : 0,
            "target" : 34962
        },
        {
            "buffer" : 0,
            "byteLength" : 384,
            "byteOffset" : 384,
            "target" : 34962
        },
        {
            "buffer" : 0,
            "byteLength" : 256,
            "byteOffset" : 768,
            "target" : 34962
        },
        {
            "buffer" : 0,
            "byteLength" : 96,
            "byteOffset" : 1024,
            "target" : 34963
        },
        {
            "buffer" : 0,
            "byteLength" : 384,
            "byteOffset" : 1120,
            "target" : 34962
        },
        {
            "buffer" : 0,
            "byteLength" : 384,
            "byteOffset" : 1504,
            "target" : 34962
        },
        {
            "buffer" : 0,
            "byteLength" : 256,
            "byteOffset" : 1888,
            "target" : 34962
        },
        {
            "buffer" : 0,
            "byteLength" : 53220,
            "byteOffset" : 2144,
            "target" : 34962
        },
        {
            "buffer" : 0,
            "byteLength" : 53220,
            "byteOffset" : 55364,
            "target" : 34962
        },
        {
            "buffer" : 0,
            "byteLength" : 35480,
            "byteOffset" : 108584,
            "target" : 34962
        },
        {
            "buffer" : 0,
            "byteLength" : 51564,
            "byteOffset" : 144064,
            "target" : 34963
        },
        {
            "buffer" : 0,
            "byteLength" : 221280,
            "byteOffset" : 195628,
            "target" : 34962
        },
        {
            "buffer" : 0,
            "byteLength" : 221280,
            "byteOffset" : 416908,
            "target" : 34962
        },
        {
            "buffer" : 0,
            "byteLength" : 147520,
            "byteOffset" : 638188,
            "target" : 34962
        },
        {
            "buffer" : 0,
            "byteLength" : 180312,
            "byteOffset" : 785708,
            "target" : 34963
        }
    ],
    "buffers" : [
        {
            "byteLength" : 966020,
            "uri" : "data:application/octet-stream;base64,"
        }
    ]
}
