{
    "asset" : {
        "generator" : "Khronos glTF Blender I/O v3.3.32",
        "version" : "2.0"
    },
    "extensionsUsed" : [
        "KHR_materials_specular",
        "KHR_materials_ior"
    ],
    "scene" : 0,
    "scenes" : [
        {
            "name" : "Scene",
            "nodes" : [
                0,
                1,
                2,
                3,
                4,
                5,
                6,
                7,
                8,
                9,
                10
            ]
        }
    ],
    "nodes" : [
        {
            "mesh" : 0,
            "name" : "Room",
            "scale" : [
                0.0010000000474974513,
                0.0010000000474974513,
                0.0010000000474974513
            ]
        },
        {
            "mesh" : 1,
            "name" : "Door02",
            "scale" : [
                0.0010000000474974513,
                0.0010000000474974513,
                0.0010000000474974513
            ]
        },
        {
            "mesh" : 2,
            "name" : "Ventilation",
            "scale" : [
                0.0010000000474974513,
                0.0010000000474974513,
                0.0010000000474974513
            ]
        },
        {
            "mesh" : 3,
            "name" : "Bathroom_door",
            "scale" : [
                0.0010000000474974513,
                0.0010000000474974513,
                0.0010000000474974513
            ]
        },
        {
            "mesh" : 4,
            "name" : "Bathroom_door_handle",
            "scale" : [
                0.0010000000474974513,
                0.0010000000474974513,
                0.0010000000474974513
            ]
        },
        {
            "mesh" : 5,
            "name" : "Bathroom_door_hinges",
            "scale" : [
                0.0010000000474974513,
                0.0010000000474974513,
                0.0010000000474974513
            ]
        },
        {
            "mesh" : 6,
            "name" : "Door02_handle",
            "scale" : [
                0.0010000000474974513,
                0.0010000000474974513,
                0.0010000000474974513
            ]
        },
        {
            "mesh" : 7,
            "name" : "Door_02_hinges",
            "scale" : [
                0.0010000000474974513,
                0.0010000000474974513,
                0.0010000000474974513
            ]
        },
        {
            "mesh" : 8,
            "name" : "Door01",
            "scale" : [
                0.0010000000474974513,
                0.0010000000474974513,
                0.0010000000474974513
            ]
        },
        {
            "mesh" : 9,
            "name" : "Door01_handle",
            "scale" : [
                0.0010000000474974513,
                0.0010000000474974513,
                0.0010000000474974513
            ]
        },
        {
            "mesh" : 10,
            "name" : "Door01_hinges",
            "scale" : [
                0.0010000000474974513,
                0.0010000000474974513,
                0.0010000000474974513
            ]
        }
    ],
    "materials" : [
        {
            "doubleSided" : true,
            "extensions" : {
                "KHR_materials_specular" : {
                    "specularColorFactor" : [
                        0,
                        0,
                        0
                    ]
                },
                "KHR_materials_ior" : {
                    "ior" : 1.4500000476837158
                }
            },
            "name" : "Walls",
            "pbrMetallicRoughness" : {
                "baseColorFactor" : [
                    0.7747947573661804,
                    0.8000000715255737,
                    0.7922057509422302,
                    1
                ],
                "metallicFactor" : 0
            }
        },
        {
            "doubleSided" : true,
            "name" : "Material",
            "pbrMetallicRoughness" : {
                "baseColorTexture" : {
                    "index" : 0
                },
                "metallicFactor" : 0,
                "roughnessFactor" : 0.5
            }
        },
        {
            "doubleSided" : true,
            "name" : "Material.004",
            "pbrMetallicRoughness" : {
                "baseColorFactor" : [
                    0,
                    0,
                    0,
                    1
                ],
                "metallicFactor" : 0,
                "roughnessFactor" : 0.5
            }
        }
    ],
    "meshes" : [
        {
            "name" : "Room Type 01",
            "primitives" : [
                {
                    "attributes" : {
                        "POSITION" : 0,
                        "NORMAL" : 1
                    },
                    "indices" : 2,
                    "material" : 0
                }
            ]
        },
        {
            "name" : "Room Type 01.001",
            "primitives" : [
                {
                    "attributes" : {
                        "POSITION" : 3,
                        "NORMAL" : 4,
                        "TEXCOORD_0" : 5
                    },
                    "indices" : 6,
                    "material" : 1
                }
            ]
        },
        {
            "name" : "Room Type 01.005",
            "primitives" : [
                {
                    "attributes" : {
                        "POSITION" : 7,
                        "NORMAL" : 8
                    },
                    "indices" : 9,
                    "material" : 2
                }
            ]
        },
        {
            "name" : "Room Type 01.008",
            "primitives" : [
                {
                    "attributes" : {
                        "POSITION" : 10,
                        "NORMAL" : 11,
                        "TEXCOORD_0" : 12
                    },
                    "indices" : 13,
                    "material" : 1
                }
            ]
        },
        {
            "name" : "Room Type 01.009",
            "primitives" : [
                {
                    "attributes" : {
                        "POSITION" : 14,
                        "NORMAL" : 15,
                        "TEXCOORD_0" : 16
                    },
                    "indices" : 17,
                    "material" : 2
                }
            ]
        },
        {
            "name" : "Room Type 01.010",
            "primitives" : [
                {
                    "attributes" : {
                        "POSITION" : 18,
                        "NORMAL" : 19,
                        "TEXCOORD_0" : 20
                    },
                    "indices" : 21,
                    "material" : 2
                }
            ]
        },
        {
            "name" : "Room Type 01.011",
            "primitives" : [
                {
                    "attributes" : {
                        "POSITION" : 22,
                        "NORMAL" : 23,
                        "TEXCOORD_0" : 24
                    },
                    "indices" : 25,
                    "material" : 2
                }
            ]
        },
        {
            "name" : "Room Type 01.012",
            "primitives" : [
                {
                    "attributes" : {
                        "POSITION" : 26,
                        "NORMAL" : 27,
                        "TEXCOORD_0" : 28
                    },
                    "indices" : 29,
                    "material" : 2
                }
            ]
        },
        {
            "name" : "Room Type 01.013",
            "primitives" : [
                {
                    "attributes" : {
                        "POSITION" : 30,
                        "NORMAL" : 31,
                        "TEXCOORD_0" : 32
                    },
                    "indices" : 33,
                    "material" : 1
                }
            ]
        },
        {
            "name" : "Room Type 01.014",
            "primitives" : [
                {
                    "attributes" : {
                        "POSITION" : 34,
                        "NORMAL" : 35
                    },
                    "indices" : 36,
                    "material" : 2
                }
            ]
        },
        {
            "name" : "Room Type 01.015",
            "primitives" : [
                {
                    "attributes" : {
                        "POSITION" : 37,
                        "NORMAL" : 38
                    },
                    "indices" : 39,
                    "material" : 2
                }
            ]
        }
    ],
    "textures" : [
        {
            "sampler" : 0,
            "source" : 0
        }
    ],
    "images" : [
        {
            "bufferView" : 7,
            "mimeType" : "image/jpeg",
            "name" : "Gold_wood"
        }
    ],
    "accessors" : [
        {
            "bufferView" : 0,
            "componentType" : 5126,
            "count" : 679,
            "max" : [
                3529.48779296875,
                2810,
                0
            ],
            "min" : [
                0,
                200,
                -8257.732421875
            ],
            "type" : "VEC3"
        },
        {
            "bufferView" : 1,
            "componentType" : 5126,
            "count" : 679,
            "type" : "VEC3"
        },
        {
            "bufferView" : 2,
            "componentType" : 5123,
            "count" : 951,
            "type" : "SCALAR"
        },
        {
            "bufferView" : 3,
            "componentType" : 5126,
            "count" : 332,
            "max" : [
                2601.389892578125,
                2460,
                -160
            ],
            "min" : [
                981.3899536132812,
                200,
                -255
            ],
            "type" : "VEC3"
        },
        {
            "bufferView" : 4,
            "componentType" : 5126,
            "count" : 332,
            "type" : "VEC3"
        },
        {
            "bufferView" : 5,
            "componentType" : 5126,
            "count" : 332,
            "type" : "VEC2"
        },
        {
            "bufferView" : 6,
            "componentType" : 5123,
            "count" : 519,
            "type" : "SCALAR"
        },
        {
            "bufferView" : 8,
            "componentType" : 5126,
            "count" : 838,
            "max" : [
                1141.81005859375,
                2729.703125,
                -7042.455078125
            ],
            "min" : [
                529.0570068359375,
                2602.70166015625,
                -7428.232421875
            ],
            "type" : "VEC3"
        },
        {
            "bufferView" : 9,
            "componentType" : 5126,
            "count" : 838,
            "type" : "VEC3"
        },
        {
            "bufferView" : 10,
            "componentType" : 5123,
            "count" : 984,
            "type" : "SCALAR"
        },
        {
            "bufferView" : 11,
            "componentType" : 5126,
            "count" : 235,
            "max" : [
                1485.156494140625,
                2300,
                -5945.232421875
            ],
            "min" : [
                1433.3375244140625,
                200,
                -6825.232421875
            ],
            "type" : "VEC3"
        },
        {
            "bufferView" : 12,
            "componentType" : 5126,
            "count" : 235,
            "type" : "VEC3"
        },
        {
            "bufferView" : 13,
            "componentType" : 5126,
            "count" : 235,
            "type" : "VEC2"
        },
        {
            "bufferView" : 14,
            "componentType" : 5123,
            "count" : 279,
            "type" : "SCALAR"
        },
        {
            "bufferView" : 15,
            "componentType" : 5126,
            "count" : 2001,
            "max" : [
                1509.6165771484375,
                1346.197265625,
                -5996.89501953125
            ],
            "min" : [
                1375.156982421875,
                1203.0155029296875,
                -6124.005859375
            ],
            "type" : "VEC3"
        },
        {
            "bufferView" : 16,
            "componentType" : 5126,
            "count" : 2001,
            "type" : "VEC3"
        },
        {
            "bufferView" : 17,
            "componentType" : 5126,
            "count" : 2001,
            "type" : "VEC2"
        },
        {
            "bufferView" : 18,
            "componentType" : 5123,
            "count" : 2220,
            "type" : "SCALAR"
        },
        {
            "bufferView" : 19,
            "componentType" : 5126,
            "count" : 620,
            "max" : [
                1485.156494140625,
                2190.31298828125,
                -6788.23681640625
            ],
            "min" : [
                1429.6170654296875,
                317.7411804199219,
                -6807.79248046875
            ],
            "type" : "VEC3"
        },
        {
            "bufferView" : 20,
            "componentType" : 5126,
            "count" : 620,
            "type" : "VEC3"
        },
        {
            "bufferView" : 21,
            "componentType" : 5126,
            "count" : 620,
            "type" : "VEC2"
        },
        {
            "bufferView" : 22,
            "componentType" : 5123,
            "count" : 825,
            "type" : "SCALAR"
        },
        {
            "bufferView" : 23,
            "componentType" : 5126,
            "count" : 13054,
            "max" : [
                2090.00048828125,
                1332.5,
                -254
            ],
            "min" : [
                1945.00048828125,
                1191.633056640625,
                -306.4460754394531
            ],
            "type" : "VEC3"
        },
        {
            "bufferView" : 24,
            "componentType" : 5126,
            "count" : 13054,
            "type" : "VEC3"
        },
        {
            "bufferView" : 25,
            "componentType" : 5126,
            "count" : 13054,
            "type" : "VEC2"
        },
        {
            "bufferView" : 26,
            "componentType" : 5123,
            "count" : 13572,
            "type" : "SCALAR"
        },
        {
            "bufferView" : 27,
            "componentType" : 5126,
            "count" : 973,
            "max" : [
                2541.661865234375,
                2300,
                -191.09466552734375
            ],
            "min" : [
                1041.21728515625,
                280,
                -246.63414001464844
            ],
            "type" : "VEC3"
        },
        {
            "bufferView" : 28,
            "componentType" : 5126,
            "count" : 973,
            "type" : "VEC3"
        },
        {
            "bufferView" : 29,
            "componentType" : 5126,
            "count" : 973,
            "type" : "VEC2"
        },
        {
            "bufferView" : 30,
            "componentType" : 5123,
            "count" : 1041,
            "type" : "SCALAR"
        },
        {
            "bufferView" : 31,
            "componentType" : 5126,
            "count" : 241,
            "max" : [
                1355,
                2300,
                -7935.38916015625
            ],
            "min" : [
                345,
                200,
                -7985.38916015625
            ],
            "type" : "VEC3"
        },
        {
            "bufferView" : 32,
            "componentType" : 5126,
            "count" : 241,
            "type" : "VEC3"
        },
        {
            "bufferView" : 33,
            "componentType" : 5126,
            "count" : 241,
            "type" : "VEC2"
        },
        {
            "bufferView" : 34,
            "componentType" : 5123,
            "count" : 288,
            "type" : "SCALAR"
        },
        {
            "bufferView" : 35,
            "componentType" : 5126,
            "count" : 1896,
            "max" : [
                1295.705810546875,
                1346.197265625,
                -7875.3896484375
            ],
            "min" : [
                1149.8170166015625,
                1203.0155029296875,
                -8009.84912109375
            ],
            "type" : "VEC3"
        },
        {
            "bufferView" : 36,
            "componentType" : 5126,
            "count" : 1896,
            "type" : "VEC3"
        },
        {
            "bufferView" : 37,
            "componentType" : 5123,
            "count" : 2220,
            "type" : "SCALAR"
        },
        {
            "bufferView" : 38,
            "componentType" : 5126,
            "count" : 759,
            "max" : [
                387.4608154296875,
                2190.31298828125,
                -7929.849609375
            ],
            "min" : [
                365.0163879394531,
                317.7411804199219,
                -7985.38916015625
            ],
            "type" : "VEC3"
        },
        {
            "bufferView" : 39,
            "componentType" : 5126,
            "count" : 759,
            "type" : "VEC3"
        },
        {
            "bufferView" : 40,
            "componentType" : 5123,
            "count" : 828,
            "type" : "SCALAR"
        }
    ],
    "bufferViews" : [
        {
            "buffer" : 0,
            "byteLength" : 8148,
            "byteOffset" : 0,
            "target" : 34962
        },
        {
            "buffer" : 0,
            "byteLength" : 8148,
            "byteOffset" : 8148,
            "target" : 34962
        },
        {
            "buffer" : 0,
            "byteLength" : 1902,
            "byteOffset" : 16296,
            "target" : 34963
        },
        {
            "buffer" : 0,
            "byteLength" : 3984,
            "byteOffset" : 18200,
            "target" : 34962
        },
        {
            "buffer" : 0,
            "byteLength" : 3984,
            "byteOffset" : 22184,
            "target" : 34962
        },
        {
            "buffer" : 0,
            "byteLength" : 2656,
            "byteOffset" : 26168,
            "target" : 34962
        },
        {
            "buffer" : 0,
            "byteLength" : 1038,
            "byteOffset" : 28824,
            "target" : 34963
        },
        {
            "buffer" : 0,
            "byteLength" : 839073,
            "byteOffset" : 29864
        },
        {
            "buffer" : 0,
            "byteLength" : 10056,
            "byteOffset" : 868940,
            "target" : 34962
        },
        {
            "buffer" : 0,
            "byteLength" : 10056,
            "byteOffset" : 878996,
            "target" : 34962
        },
        {
            "buffer" : 0,
            "byteLength" : 1968,
            "byteOffset" : 889052,
            "target" : 34963
        },
        {
            "buffer" : 0,
            "byteLength" : 2820,
            "byteOffset" : 891020,
            "target" : 34962
        },
        {
            "buffer" : 0,
            "byteLength" : 2820,
            "byteOffset" : 893840,
            "target" : 34962
        },
        {
            "buffer" : 0,
            "byteLength" : 1880,
            "byteOffset" : 896660,
            "target" : 34962
        },
        {
            "buffer" : 0,
            "byteLength" : 558,
            "byteOffset" : 898540,
            "target" : 34963
        },
        {
            "buffer" : 0,
            "byteLength" : 24012,
            "byteOffset" : 899100,
            "target" : 34962
        },
        {
            "buffer" : 0,
            "byteLength" : 24012,
            "byteOffset" : 923112,
            "target" : 34962
        },
        {
            "buffer" : 0,
            "byteLength" : 16008,
            "byteOffset" : 947124,
            "target" : 34962
        },
        {
            "buffer" : 0,
            "byteLength" : 4440,
            "byteOffset" : 963132,
            "target" : 34963
        },
        {
            "buffer" : 0,
            "byteLength" : 7440,
            "byteOffset" : 967572,
            "target" : 34962
        },
        {
            "buffer" : 0,
            "byteLength" : 7440,
            "byteOffset" : 975012,
            "target" : 34962
        },
        {
            "buffer" : 0,
            "byteLength" : 4960,
            "byteOffset" : 982452,
            "target" : 34962
        },
        {
            "buffer" : 0,
            "byteLength" : 1650,
            "byteOffset" : 987412,
            "target" : 34963
        },
        {
            "buffer" : 0,
            "byteLength" : 156648,
            "byteOffset" : 989064,
            "target" : 34962
        },
        {
            "buffer" : 0,
            "byteLength" : 156648,
            "byteOffset" : 1145712,
            "target" : 34962
        },
        {
            "buffer" : 0,
            "byteLength" : 104432,
            "byteOffset" : 1302360,
            "target" : 34962
        },
        {
            "buffer" : 0,
            "byteLength" : 27144,
            "byteOffset" : 1406792,
            "target" : 34963
        },
        {
            "buffer" : 0,
            "byteLength" : 11676,
            "byteOffset" : 1433936,
            "target" : 34962
        },
        {
            "buffer" : 0,
            "byteLength" : 11676,
            "byteOffset" : 1445612,
            "target" : 34962
        },
        {
            "buffer" : 0,
            "byteLength" : 7784,
            "byteOffset" : 1457288,
            "target" : 34962
        },
        {
            "buffer" : 0,
            "byteLength" : 2082,
            "byteOffset" : 1465072,
            "target" : 34963
        },
        {
            "buffer" : 0,
            "byteLength" : 2892,
            "byteOffset" : 1467156,
            "target" : 34962
        },
        {
            "buffer" : 0,
            "byteLength" : 2892,
            "byteOffset" : 1470048,
            "target" : 34962
        },
        {
            "buffer" : 0,
            "byteLength" : 1928,
            "byteOffset" : 1472940,
            "target" : 34962
        },
        {
            "buffer" : 0,
            "byteLength" : 576,
            "byteOffset" : 1474868,
            "target" : 34963
        },
        {
            "buffer" : 0,
            "byteLength" : 22752,
            "byteOffset" : 1475444,
            "target" : 34962
        },
        {
            "buffer" : 0,
            "byteLength" : 22752,
            "byteOffset" : 1498196,
            "target" : 34962
        },
        {
            "buffer" : 0,
            "byteLength" : 4440,
            "byteOffset" : 1520948,
            "target" : 34963
        },
        {
            "buffer" : 0,
            "byteLength" : 9108,
            "byteOffset" : 1525388,
            "target" : 34962
        },
        {
            "buffer" : 0,
            "byteLength" : 9108,
            "byteOffset" : 1534496,
            "target" : 34962
        },
        {
            "buffer" : 0,
            "byteLength" : 1656,
            "byteOffset" : 1543604,
            "target" : 34963
        }
    ],
    "samplers" : [
        {
            "magFilter" : 9729,
            "minFilter" : 9987
        }
    ],
    "buffers" : [
        {
            "byteLength" : 1545260,
            "uri" : "data:application/octet-stream;base64,"
        }
    ]
}
