{
    "asset" : {
        "generator" : "Khronos glTF Blender I/O v3.3.32",
        "version" : "2.0"
    },
    "scene" : 0,
    "scenes" : [
        {
            "name" : "Scene",
            "nodes" : [
                0,
                1
            ]
        }
    ],
    "nodes" : [
        {
            "mesh" : 0,
            "name" : "lowchair_feet",
            "scale" : [
                0.0010000000474974513,
                0.0010000000474974513,
                0.0010000000474974513
            ]
        },
        {
            "mesh" : 1,
            "name" : "lowchair_feet",
            "scale" : [
                0.0010000000474974513,
                0.0010000000474974513,
                0.0010000000474974513
            ]
        }
    ],
    "materials" : [
        {
            "doubleSided" : true,
            "name" : "Material.002",
            "pbrMetallicRoughness" : {
                "baseColorFactor" : [
                    0.8006603717803955,
                    0.7545102834701538,
                    0.7999064922332764,
                    1
                ],
                "metallicFactor" : 0.7707006335258484,
                "roughnessFactor" : 0.5
            }
        },
        {
            "doubleSided" : true,
            "name" : "Material.001",
            "pbrMetallicRoughness" : {
                "baseColorFactor" : [
                    0.01424289122223854,
                    0.01424289122223854,
                    0.01424289122223854,
                    1
                ],
                "metallicFactor" : 0,
                "roughnessFactor" : 0.5
            }
        }
    ],
    "meshes" : [
        {
            "name" : "Low Chair.001",
            "primitives" : [
                {
                    "attributes" : {
                        "POSITION" : 0,
                        "NORMAL" : 1
                    },
                    "indices" : 2,
                    "material" : 0
                }
            ]
        },
        {
            "name" : "Low Chair.002",
            "primitives" : [
                {
                    "attributes" : {
                        "POSITION" : 3,
                        "NORMAL" : 4
                    },
                    "indices" : 5,
                    "material" : 1
                }
            ]
        }
    ],
    "accessors" : [
        {
            "bufferView" : 0,
            "componentType" : 5126,
            "count" : 9195,
            "max" : [
                228.62796020507812,
                459.7041015625,
                243.85267639160156
            ],
            "min" : [
                -228.02732849121094,
                4.633347034454346,
                -229.10992431640625
            ],
            "type" : "VEC3"
        },
        {
            "bufferView" : 1,
            "componentType" : 5126,
            "count" : 9195,
            "type" : "VEC3"
        },
        {
            "bufferView" : 2,
            "componentType" : 5123,
            "count" : 9195,
            "type" : "SCALAR"
        },
        {
            "bufferView" : 3,
            "componentType" : 5126,
            "count" : 2363,
            "max" : [
                229.52801513671875,
                14.611806869506836,
                195.85711669921875
            ],
            "min" : [
                -228.98704528808594,
                -3.459832805674523e-05,
                -186.55809020996094
            ],
            "type" : "VEC3"
        },
        {
            "bufferView" : 4,
            "componentType" : 5126,
            "count" : 2363,
            "type" : "VEC3"
        },
        {
            "bufferView" : 5,
            "componentType" : 5123,
            "count" : 2445,
            "type" : "SCALAR"
        }
    ],
    "bufferViews" : [
        {
            "buffer" : 0,
            "byteLength" : 110340,
            "byteOffset" : 0,
            "target" : 34962
        },
        {
            "buffer" : 0,
            "byteLength" : 110340,
            "byteOffset" : 110340,
            "target" : 34962
        },
        {
            "buffer" : 0,
            "byteLength" : 18390,
            "byteOffset" : 220680,
            "target" : 34963
        },
        {
            "buffer" : 0,
            "byteLength" : 28356,
            "byteOffset" : 239072,
            "target" : 34962
        },
        {
            "buffer" : 0,
            "byteLength" : 28356,
            "byteOffset" : 267428,
            "target" : 34962
        },
        {
            "buffer" : 0,
            "byteLength" : 4890,
            "byteOffset" : 295784,
            "target" : 34963
        }
    ],
    "buffers" : [
        {
            "byteLength" : 300676,
            "uri" : "lowChair_feets.bin"
        }
    ]
}
