{
    "asset" : {
        "generator" : "Khronos glTF Blender I/O v3.3.32",
        "version" : "2.0"
    },
    "scene" : 0,
    "scenes" : [
        {
            "name" : "Scene",
            "nodes" : [
                0,
                1
            ]
        }
    ],
    "nodes" : [
        {
            "mesh" : 0,
            "name" : "High Chair_feets",
            "scale" : [
                0.0010000000474974513,
                0.0010000000474974513,
                0.0010000000474974513
            ]
        },
        {
            "mesh" : 1,
            "name" : "High Chair_screws",
            "scale" : [
                0.0010000000474974513,
                0.0010000000474974513,
                0.0010000000474974513
            ]
        }
    ],
    "materials" : [
        {
            "doubleSided" : true,
            "name" : "Chair_feet",
            "pbrMetallicRoughness" : {
                "baseColorFactor" : [
                    0.8006603717803955,
                    0.7545102834701538,
                    0.7999064922332764,
                    1
                ],
                "metallicFactor" : 0.7707006335258484,
                "roughnessFactor" : 0.5
            }
        },
        {
            "doubleSided" : true,
            "name" : "Chair_screws",
            "pbrMetallicRoughness" : {
                "baseColorFactor" : [
                    0.01424289122223854,
                    0.01424289122223854,
                    0.01424289122223854,
                    1
                ],
                "metallicFactor" : 0,
                "roughnessFactor" : 0.5
            }
        }
    ],
    "meshes" : [
        {
            "name" : "High Chair.001",
            "primitives" : [
                {
                    "attributes" : {
                        "POSITION" : 0,
                        "NORMAL" : 1
                    },
                    "indices" : 2,
                    "material" : 0
                }
            ]
        },
        {
            "name" : "High Chair.002",
            "primitives" : [
                {
                    "attributes" : {
                        "POSITION" : 3,
                        "NORMAL" : 4
                    },
                    "indices" : 5,
                    "material" : 1
                }
            ]
        }
    ],
    "accessors" : [
        {
            "bufferView" : 0,
            "componentType" : 5126,
            "count" : 12048,
            "max" : [
                254.10227966308594,
                651.5748901367188,
                274.2077941894531
            ],
            "min" : [
                -253.5165557861328,
                0.0002604007604531944,
                -235.37779235839844
            ],
            "type" : "VEC3"
        },
        {
            "bufferView" : 1,
            "componentType" : 5126,
            "count" : 12048,
            "type" : "VEC3"
        },
        {
            "bufferView" : 2,
            "componentType" : 5123,
            "count" : 12072,
            "type" : "SCALAR"
        },
        {
            "bufferView" : 3,
            "componentType" : 5126,
            "count" : 17061,
            "max" : [
                175.69012451171875,
                654.7708129882812,
                143.2854461669922
            ],
            "min" : [
                -175.070556640625,
                613.7920532226562,
                -110.97280883789062
            ],
            "type" : "VEC3"
        },
        {
            "bufferView" : 4,
            "componentType" : 5126,
            "count" : 17061,
            "type" : "VEC3"
        },
        {
            "bufferView" : 5,
            "componentType" : 5123,
            "count" : 17079,
            "type" : "SCALAR"
        }
    ],
    "bufferViews" : [
        {
            "buffer" : 0,
            "byteLength" : 144576,
            "byteOffset" : 0,
            "target" : 34962
        },
        {
            "buffer" : 0,
            "byteLength" : 144576,
            "byteOffset" : 144576,
            "target" : 34962
        },
        {
            "buffer" : 0,
            "byteLength" : 24144,
            "byteOffset" : 289152,
            "target" : 34963
        },
        {
            "buffer" : 0,
            "byteLength" : 204732,
            "byteOffset" : 313296,
            "target" : 34962
        },
        {
            "buffer" : 0,
            "byteLength" : 204732,
            "byteOffset" : 518028,
            "target" : 34962
        },
        {
            "buffer" : 0,
            "byteLength" : 34158,
            "byteOffset" : 722760,
            "target" : 34963
        }
    ],
    "buffers" : [
        {
            "byteLength" : 756920,
            "uri" : "highChair_feet.bin"
        }
    ]
}
