{
    "asset" : {
        "generator" : "Khronos glTF Blender I/O v3.3.32",
        "version" : "2.0"
    },
    "scene" : 0,
    "scenes" : [
        {
            "name" : "Scene",
            "nodes" : [
                0
            ]
        }
    ],
    "nodes" : [
        {
            "mesh" : 0,
            "name" : "kitchenworkwood",
            "scale" : [
                0.0010000000474974513,
                0.0010000000474974513,
                0.0010000000474974513
            ]
        }
    ],
    "materials" : [
        {
            "doubleSided" : true,
            "name" : "Dekorspan_w",
            "pbrMetallicRoughness" : {
                "baseColorFactor" : [
                    1,
                    0.9709903001785278,
                    0.9709903001785278,
                    1
                ],
                "metallicFactor" : 0,
                "roughnessFactor" : 0.6146496534347534
            }
        }
    ],
    "meshes" : [
        {
            "name" : "Kitchen.002",
            "primitives" : [
                {
                    "attributes" : {
                        "POSITION" : 0,
                        "NORMAL" : 1,
                        "TEXCOORD_0" : 2
                    },
                    "indices" : 3,
                    "material" : 0
                }
            ]
        }
    ],
    "accessors" : [
        {
            "bufferView" : 0,
            "componentType" : 5126,
            "count" : 6544,
            "max" : [
                1925,
                1493,
                -0.00154850073158741
            ],
            "min" : [
                9.655565409716349e-12,
                630.4000244140625,
                -1200
            ],
            "type" : "VEC3"
        },
        {
            "bufferView" : 1,
            "componentType" : 5126,
            "count" : 6544,
            "type" : "VEC3"
        },
        {
            "bufferView" : 2,
            "componentType" : 5126,
            "count" : 6544,
            "type" : "VEC2"
        },
        {
            "bufferView" : 3,
            "componentType" : 5123,
            "count" : 6720,
            "type" : "SCALAR"
        }
    ],
    "bufferViews" : [
        {
            "buffer" : 0,
            "byteLength" : 78528,
            "byteOffset" : 0,
            "target" : 34962
        },
        {
            "buffer" : 0,
            "byteLength" : 78528,
            "byteOffset" : 78528,
            "target" : 34962
        },
        {
            "buffer" : 0,
            "byteLength" : 52352,
            "byteOffset" : 157056,
            "target" : 34962
        },
        {
            "buffer" : 0,
            "byteLength" : 13440,
            "byteOffset" : 209408,
            "target" : 34963
        }
    ],
    "buffers" : [
        {
            "byteLength" : 222848,
            "uri" : "data:application/octet-stream;base64,"
        }
    ]
}
