{
    "asset" : {
        "generator" : "Khronos glTF Blender I/O v3.3.32",
        "version" : "2.0"
    },
    "extensionsUsed" : [
        "KHR_materials_specular",
        "KHR_materials_ior"
    ],
    "scene" : 0,
    "scenes" : [
        {
            "name" : "Scene",
            "nodes" : [
                0,
                1
            ]
        }
    ],
    "nodes" : [
        {
            "mesh" : 0,
            "name" : "closet_handle",
            "scale" : [
                0.0010999999940395355,
                0.0010999999940395355,
                0.0010999999940395355
            ]
        },
        {
            "mesh" : 1,
            "name" : "Closet_legs",
            "scale" : [
                0.0010999999940395355,
                0.0010999999940395355,
                0.0010999999940395355
            ]
        }
    ],
    "materials" : [
        {
            "doubleSided" : true,
            "extensions" : {
                "KHR_materials_specular" : {
                    "specularColorFactor" : [
                        2.05416968388359,
                        2.05416968388359,
                        2.05416968388359
                    ]
                },
                "KHR_materials_ior" : {
                    "ior" : 1.4500000476837158
                }
            },
            "name" : "Metal",
            "pbrMetallicRoughness" : {
                "baseColorFactor" : [
                    0.029061056673526764,
                    0.0266923476010561,
                    0.029100244864821434,
                    1
                ],
                "metallicFactor" : 0.6878980994224548,
                "roughnessFactor" : 0.5
            }
        }
    ],
    "meshes" : [
        {
            "name" : "Closet.001",
            "primitives" : [
                {
                    "attributes" : {
                        "POSITION" : 0,
                        "NORMAL" : 1,
                        "TEXCOORD_0" : 2
                    },
                    "indices" : 3,
                    "material" : 0
                }
            ]
        },
        {
            "name" : "Closet.002",
            "primitives" : [
                {
                    "attributes" : {
                        "POSITION" : 4,
                        "NORMAL" : 5,
                        "TEXCOORD_0" : 6
                    },
                    "indices" : 7,
                    "material" : 0
                }
            ]
        }
    ],
    "accessors" : [
        {
            "bufferView" : 0,
            "componentType" : 5126,
            "count" : 914,
            "max" : [
                18.66986083984375,
                976.412109375,
                -8.60904312133789
            ],
            "min" : [
                -18.66986083984375,
                906.412109375,
                -50.60904312133789
            ],
            "type" : "VEC3"
        },
        {
            "bufferView" : 1,
            "componentType" : 5126,
            "count" : 914,
            "type" : "VEC3"
        },
        {
            "bufferView" : 2,
            "componentType" : 5126,
            "count" : 914,
            "type" : "VEC2"
        },
        {
            "bufferView" : 3,
            "componentType" : 5123,
            "count" : 1290,
            "type" : "SCALAR"
        },
        {
            "bufferView" : 4,
            "componentType" : 5126,
            "count" : 410,
            "max" : [
                354.6100769042969,
                93,
                -129.90956115722656
            ],
            "min" : [
                -356.8764343261719,
                -30,
                -177.90956115722656
            ],
            "type" : "VEC3"
        },
        {
            "bufferView" : 5,
            "componentType" : 5126,
            "count" : 410,
            "type" : "VEC3"
        },
        {
            "bufferView" : 6,
            "componentType" : 5126,
            "count" : 410,
            "type" : "VEC2"
        },
        {
            "bufferView" : 7,
            "componentType" : 5123,
            "count" : 420,
            "type" : "SCALAR"
        }
    ],
    "bufferViews" : [
        {
            "buffer" : 0,
            "byteLength" : 10968,
            "byteOffset" : 0,
            "target" : 34962
        },
        {
            "buffer" : 0,
            "byteLength" : 10968,
            "byteOffset" : 10968,
            "target" : 34962
        },
        {
            "buffer" : 0,
            "byteLength" : 7312,
            "byteOffset" : 21936,
            "target" : 34962
        },
        {
            "buffer" : 0,
            "byteLength" : 2580,
            "byteOffset" : 29248,
            "target" : 34963
        },
        {
            "buffer" : 0,
            "byteLength" : 4920,
            "byteOffset" : 31828,
            "target" : 34962
        },
        {
            "buffer" : 0,
            "byteLength" : 4920,
            "byteOffset" : 36748,
            "target" : 34962
        },
        {
            "buffer" : 0,
            "byteLength" : 3280,
            "byteOffset" : 41668,
            "target" : 34962
        },
        {
            "buffer" : 0,
            "byteLength" : 840,
            "byteOffset" : 44948,
            "target" : 34963
        }
    ],
    "buffers" : [
        {
            "byteLength" : 45788,
            "uri" : "closet_handle.bin"
        }
    ]
}
